<svg width="22" height="22" viewBox="0 0 22 22" fill="none" xmlns="http://www.w3.org/2000/svg">
<rect width="22" height="22" fill="#F5F5F5"/>
<g clip-path="url(#clip0_173_72)">
<rect width="360" height="800" transform="translate(-21 -740)" fill="white"/>
<path d="M-36 81V15C-36 7.04351 -32.8393 -0.587107 -27.2132 -6.2132C-21.5871 -11.8393 -13.9565 -15 -6 -15H123.884C126.764 -19.5916 130.763 -23.3766 135.506 -26.0002C140.249 -28.6239 145.58 -30.0002 151 -30.0002C156.42 -30.0002 161.751 -28.6239 166.494 -26.0002C171.237 -23.3766 175.236 -19.5916 178.116 -15H309C316.956 -15 324.587 -11.8393 330.213 -6.2132C335.839 -0.587107 339 7.04351 339 15V81H-36Z" fill="white"/>
<path d="M12.2 2.025L19.2 7.275C19.4484 7.46129 19.65 7.70286 19.7889 7.98057C19.9277 8.25828 20 8.56451 20 8.875V18.375C20 18.9054 19.7893 19.4141 19.4142 19.7892C19.0391 20.1643 18.5304 20.375 18 20.375H4C3.46957 20.375 2.96086 20.1643 2.58579 19.7892C2.21071 19.4141 2 18.9054 2 18.375V8.875C2 8.56451 2.07229 8.25828 2.21115 7.98057C2.35 7.70286 2.55161 7.46129 2.8 7.275L9.8 2.025C10.1462 1.76536 10.5673 1.625 11 1.625C11.4327 1.625 11.8538 1.76536 12.2 2.025Z" fill="#3B82F6"/>
</g>
<defs>
<clipPath id="clip0_173_72">
<rect width="360" height="800" fill="white" transform="translate(-21 -740)"/>
</clipPath>
</defs>
</svg>
